<svg id="Шар_1" data-name="Шар 1" xmlns="http://www.w3.org/2000/svg" viewBox="0 0 32 32"><defs><style>.cls-1{fill:#282C33;}.cls-2{fill:#abb3bb;}</style></defs><rect class="cls-1" x="4.37" y="7.86" width="23.27" height="16.29" rx="1.79"/><path class="cls-2" d="M27.63,22.42l-.18.52-7-6.94,7-6.93.18.51Z"/><path class="cls-2" d="M5.58,8a5.19,5.19,0,0,1,.88-.13c3.29,0,6.59,0,9.88,0,3.07,0,6.14,0,9.2,0a5.19,5.19,0,0,1,.88.13v.07l-.15.16q-4.8,4.78-9.59,9.59a.94.94,0,0,1-1.38,0Q10.52,13,5.71,8.21l-.13-.13Z"/><path class="cls-2" d="M19.41,17l7.06,7-.71.17H6.41A6.49,6.49,0,0,1,5.52,24l7.08-7,.11.09,1.71,1.71a2.15,2.15,0,0,0,3.16,0Z"/><path class="cls-2" d="M11.6,16l-7,7a1.67,1.67,0,0,1-.2-.83v-5.3c0-2.31,0-4.62,0-6.94A5.59,5.59,0,0,1,4.52,9Z"/></svg>