<svg id="Шар_1" data-name="Шар 1" xmlns="http://www.w3.org/2000/svg" viewBox="0 0 32 32"><defs><style>.cls-1{fill:#282C33;}.cls-2{fill:#abb3bb;}</style></defs><circle class="cls-1" cx="16" cy="16.2" r="14.3"/><path class="cls-2" d="M1.08,15.05c0-.4.11-.81.17-1.22A14,14,0,0,1,4.7,6.56,14.42,14.42,0,0,1,13,1.82,14.86,14.86,0,0,1,25.63,5a14,14,0,0,1,5,8.08,13.78,13.78,0,0,1,.16,5.08,14,14,0,0,1-2.63,6.37A14.64,14.64,0,0,1,22.64,29c-.54.26-1.11.46-1.66.69h0c-.82.3-1.28,0-1.27-.84,0-1.2,0-2.39,0-3.59a4.15,4.15,0,0,0-.41-2.05,8.14,8.14,0,0,0-.54-.81c.51-.09,1-.16,1.55-.27a6.82,6.82,0,0,0,3.23-1.53,5.48,5.48,0,0,0,1.68-2.93,8.25,8.25,0,0,0,.1-3.89,5,5,0,0,0-1.16-2.21.47.47,0,0,1-.09-.53,5.06,5.06,0,0,0-.21-3.41c0-.08-.2-.14-.3-.14a4.54,4.54,0,0,0-2.11.55c-.51.24-1,.53-1.47.81a.61.61,0,0,1-.51.08,14.54,14.54,0,0,0-6.94,0A.6.6,0,0,1,12,8.89,8.76,8.76,0,0,0,9.3,7.63a5,5,0,0,0-1-.09.3.3,0,0,0-.23.17A5.11,5.11,0,0,0,8,11.22a.34.34,0,0,1-.06.29,5.9,5.9,0,0,0-1.37,4.72A8.08,8.08,0,0,0,7.23,19a5.56,5.56,0,0,0,3.11,2.78A11.36,11.36,0,0,0,13,22.4l.17,0a.35.35,0,0,1,.09.06,3.19,3.19,0,0,0-.89,1.77.32.32,0,0,1-.17.19,3.12,3.12,0,0,1-4.1-1.09,3.26,3.26,0,0,0-1.8-1.52,2.71,2.71,0,0,0-.94-.09c-.34,0-.4.23-.17.48a1.64,1.64,0,0,0,.35.29A4,4,0,0,1,7.2,24.58a3.7,3.7,0,0,0,4,2.2c.35,0,.7-.08,1.12-.13v1.72a5.62,5.62,0,0,1,0,.82.73.73,0,0,1-1,.61,10.9,10.9,0,0,1-1.09-.39,14.66,14.66,0,0,1-8.34-8.78,13.05,13.05,0,0,1-.71-3.38c0-.09,0-.18,0-.28Z"/></svg>