<svg id="Шар_1" data-name="Шар 1" xmlns="http://www.w3.org/2000/svg" viewBox="0 0 32 32"><defs><style>.cls-1{fill:#abb3bb;}.cls-2{fill:#282C33;}</style></defs><circle class="cls-1" cx="16" cy="16" r="15.25"/><path class="cls-2" d="M13.2,5.67h5.73c.14,0,.29,0,.44,0A11.58,11.58,0,0,1,21.93,6a5.19,5.19,0,0,1,3.68,2.83,7.22,7.22,0,0,1,.69,3.13q0,4.1,0,8.19a7.84,7.84,0,0,1-.23,1.79,5.17,5.17,0,0,1-3.18,3.86,8.19,8.19,0,0,1-3,.54c-2.33,0-4.66.05-7,0a14.69,14.69,0,0,1-2.56-.24,5.18,5.18,0,0,1-3.73-2.62,6.88,6.88,0,0,1-.8-2.9c0-.32-.06-.64-.08-1V12.29c0-.11,0-.21,0-.32.08-.63.11-1.27.25-1.89A5.22,5.22,0,0,1,9.4,6.16a8.61,8.61,0,0,1,2.81-.45Zm11.26,10h0c0-.77,0-1.55,0-2.32a15.66,15.66,0,0,0-.17-2.65,3.39,3.39,0,0,0-2.5-2.85A10.54,10.54,0,0,0,19,7.53c-1.64,0-3.28,0-4.92,0a21.41,21.41,0,0,0-3.3.17,3.39,3.39,0,0,0-2.95,2.74,13.07,13.07,0,0,0-.27,3.05c0,1.84,0,3.67,0,5.51a10.74,10.74,0,0,0,.23,2.46,3.38,3.38,0,0,0,2.66,2.72,11.83,11.83,0,0,0,2.3.26c2,0,3.9,0,5.85,0a14,14,0,0,0,2.89-.21,3.43,3.43,0,0,0,2.75-2.56,8.57,8.57,0,0,0,.26-2.07C24.47,18.3,24.46,17,24.46,15.69Z"/><path class="cls-2" d="M21.34,16A5.31,5.31,0,1,1,16,10.69,5.32,5.32,0,0,1,21.34,16ZM16,12.57A3.44,3.44,0,1,0,19.46,16,3.42,3.42,0,0,0,16,12.57Z"/><path class="cls-2" d="M21.54,11.73a1.25,1.25,0,0,1,0-2.49,1.25,1.25,0,0,1,1.24,1.25A1.23,1.23,0,0,1,21.54,11.73Z"/></svg>