<svg id="Шар_1" data-name="Шар 1" xmlns="http://www.w3.org/2000/svg" viewBox="0 0 32 32"><defs><style>.cls-1{fill:#282C33;stroke:#abb3bb;stroke-miterlimit:10;stroke-width:0.57px;}</style></defs><circle class="cls-1" cx="16" cy="16" r="15.17"/><path class="cls-1" d="M17,23H13.63V12h3.23v1.49l.13-.1a3.56,3.56,0,0,1,3.22-1.68,6.45,6.45,0,0,1,1.51.2,3.27,3.27,0,0,1,2.39,3A15.84,15.84,0,0,1,24.27,17c0,1.88,0,3.76,0,5.63,0,.27-.06.36-.34.35-.92,0-1.84,0-2.76,0h-.33v-.36c0-1.8,0-3.61,0-5.41a5.9,5.9,0,0,0-.2-1.45,1.36,1.36,0,0,0-1.19-1.06,1.92,1.92,0,0,0-2.4,1.88C17,17.31,17,18,17,18.75,17,20.15,17,21.56,17,23Z"/><path class="cls-1" d="M8,12H11.4V23H8Z"/><path class="cls-1" d="M9.71,10.42a2,2,0,1,1,2-2A2,2,0,0,1,9.71,10.42Z"/></svg>