<svg id="Шар_1" data-name="Шар 1" xmlns="http://www.w3.org/2000/svg" viewBox="0 0 32 32"><defs><style>.cls-1{fill:#abb3bb;}.cls-2{fill:#282C33;}</style></defs><circle class="cls-1" cx="16" cy="16" r="15.5"/><path class="cls-2" d="M23.28,10.52c-.12,1.26-.32,2.56-.51,3.87-.37,2.43-.79,4.85-1.23,7.27a4.74,4.74,0,0,1-.31,1.16c-.3.68-.65.92-1.57.66a3.17,3.17,0,0,1-.89-.47l-4.3-2.92a2.87,2.87,0,0,1-.65-.55.72.72,0,0,1-.07-1,3.8,3.8,0,0,1,.46-.53c1.46-1.42,3-2.76,4.42-4.23a3.17,3.17,0,0,0,.34-.39.27.27,0,0,0,0-.34.26.26,0,0,0-.34-.06,2,2,0,0,0-.32.17c-2,1.27-3.9,2.57-5.84,3.88-.27.19-.54.37-.82.54a2.58,2.58,0,0,1-1.92.32,24.3,24.3,0,0,1-2.91-.86c-.29-.1-.62-.22-.63-.59s.28-.55.55-.67c1.22-.56,2.45-1.09,3.68-1.63,3.32-1.45,6.64-2.88,10-4.2a8.68,8.68,0,0,1,1.66-.53C22.89,9.33,23.29,9.67,23.28,10.52Z"/></svg>